<svg xmlns="http://www.w3.org/2000/svg" width="430" height="430" style="width:100%;height:100%;transform:translate3d(0,0,0);content-visibility:visible" viewBox="0 0 430 430"><defs><clipPath id="c"><path d="M0 0h430v430H0z"/></clipPath><clipPath id="f"><path d="M0 0h430v430H0z"/></clipPath><clipPath id="d"><path d="M0 0h430v430H0z"/></clipPath><path id="a" style="display:none"/><path id="b" fill="red" d="M.148-95H-130V55c0 22.091 17.909 40 40 40H90c22.091 0 40-17.909 40-40V-95z" style="display:block" transform="translate(215 285)"/><mask id="g" mask-type="alpha"><use xmlns:ns1="http://www.w3.org/1999/xlink" ns1:href="#a"/></mask><mask id="e" mask-type="alpha"><use xmlns:ns2="http://www.w3.org/1999/xlink" ns2:href="#b"/></mask></defs><g clip-path="url(#c)"><g clip-path="url(#d)" style="display:block"><path fill="none" stroke="#A866ED" stroke-linecap="round" stroke-linejoin="round" stroke-width="10.5" d="M-85.208 59.213V1.389c0-47.532 38.049-86.064 84.984-86.064S84.76-46.143 84.76 1.389q0 0 0 0v58.906" class="primary" style="display:block" transform="translate(215.283 124.906)"/><g fill="#E4D1F9" style="display:block"><path d="M215.148 190H85v150c0 22.091 17.909 40 40 40h180c22.091 0 40-17.909 40-40V190z" class="secondary"/><path fill-opacity=".5" d="M.148-95H-130V55c0 22.091 17.909 40 40 40H90c22.091 0 40-17.909 40-40V-95z" class="secondary" style="mix-blend-mode:multiply" transform="translate(215 285)"/></g><g mask="url(#e)" style="display:block"><path fill="#E4D1F9" d="M274.148 190H144v150c0 22.091 17.909 40 40 40h180c22.091 0 40-17.909 40-40V190z" class="secondary"/></g><path fill="none" stroke="#A866ED" stroke-linecap="round" stroke-linejoin="round" stroke-width="10.5" d="M.148-95H-130V55c0 22.091 17.909 40 40 40H90c22.091 0 40-17.909 40-40V-95q0 0 0 0z" class="primary" style="display:block" transform="translate(215 285)"/><path fill="none" stroke="#A866ED" stroke-linecap="round" stroke-linejoin="round" stroke-width="10.5" d="M215.005 230v15.895m0 78.638V340m23.026-94.115h-30.545c-10.886 0-19.711 8.814-19.711 19.7s8.825 19.711 19.711 19.711h15.089c10.876 0 19.681 8.834 19.65 19.71-.031 10.896-8.917 19.681-19.446 19.599l-34.422-.296" class="primary" style="display:block"/></g><g clip-path="url(#f)" style="display:none"><path fill="none" class="primary" style="display:none"/><g style="display:none"><path class="secondary"/><path class="secondary" style="mix-blend-mode:multiply"/></g><g mask="url(#g)" style="display:none"><path class="secondary"/></g><path fill="none" class="primary" style="display:none"/><g fill="none" style="display:none"><path class="primary"/><path class="primary"/></g></g></g></svg>